<?xml version="1.0" encoding="UTF-8"?>
<svg width="227px" height="68px" viewBox="0 0 227 68" version="1.1" xmlns="http://www.w3.org/2000/svg" xmlns:xlink="http://www.w3.org/1999/xlink">
    <title>AB18B23F-58BD-4FE2-8A5E-1FD88F434DDA</title>
    <defs>
        <polygon id="path-1" points="0 0.3662 107.7139 0.3662 107.7139 36 0 36"></polygon>
    </defs>
    <g id="V2" stroke="none" stroke-width="1" fill="none" fill-rule="evenodd">
        <g id="Home" transform="translate(-240.000000, -6947.000000)">
            <g id="logo-white" transform="translate(240.000000, 6947.000000)">
                <g id="Group-3" transform="translate(0.000000, 31.808800)">
                    <mask id="mask-2" fill="white">
                        <use xlink:href="#path-1"></use>
                    </mask>
                    <g id="Clip-2"></g>
                    <path d="M-0.0001,27.4612 C1.8149,28.6332 3.4729,29.4892 4.9729,30.0382 C6.4729,30.5972 7.9029,30.8712 9.2539,30.8712 C11.0059,30.8712 12.4199,30.4392 13.5129,29.5672 C14.6049,28.7022 15.1459,27.5802 15.1459,26.1962 C15.1459,25.0502 14.7849,24.0142 14.0539,23.1022 C13.3239,22.1902 12.0509,21.1922 10.2439,20.1162 L7.7379,18.6002 C5.1849,17.0922 3.3779,15.6152 2.3169,14.1702 C1.2499,12.7172 0.7149,11.0592 0.7149,9.1792 C0.7149,6.5732 1.6499,4.4522 3.5189,2.8182 C5.3979,1.1842 7.8329,0.3662 10.8419,0.3662 C12.2939,0.3662 13.7169,0.5312 15.0829,0.8602 C16.4579,1.1912 17.8409,1.7012 19.2399,2.3942 L19.0579,7.7122 C17.4009,6.8092 15.9389,6.1412 14.6749,5.7242 C13.4099,5.3012 12.2789,5.0882 11.2819,5.0882 C9.7399,5.0882 8.5399,5.4252 7.6519,6.1092 C6.7719,6.7922 6.3319,7.7272 6.3319,8.9052 C6.3319,9.8322 6.6549,10.6662 7.2979,11.4212 C7.9419,12.1662 9.1369,13.0622 10.8889,14.0902 L13.3079,15.4882 C16.0969,17.1482 18.0849,18.7972 19.2619,20.4302 C20.4499,22.0652 21.0379,23.9422 21.0379,26.0552 C21.0379,29.0332 19.9929,31.4372 17.8959,33.2592 C15.8059,35.0892 13.0169,36.0002 9.5279,36.0002 C7.9339,36.0002 6.3799,35.8362 4.8699,35.5062 C3.3619,35.1762 1.9089,34.6802 0.5349,34.0222 L-0.0001,27.4612 Z M30.4499,22.6692 L40.7409,22.1902 L40.7409,21.9072 C40.7409,20.6182 40.3089,19.5752 39.4529,18.7732 C38.5889,17.9642 37.4809,17.5642 36.1139,17.5642 C34.6049,17.5642 33.3649,18.0112 32.3659,18.9062 C31.3769,19.8032 30.7399,21.0602 30.4499,22.6692 L30.4499,22.6692 Z M45.0709,28.8442 L44.5199,33.8332 C42.9089,34.5082 41.4159,35.0052 40.0499,35.3262 C38.6829,35.6482 37.3709,35.8122 36.1139,35.8122 C32.8619,35.8122 30.1669,34.7442 28.0459,32.6142 C25.9159,30.4792 24.8559,27.7762 24.8559,24.4912 C24.8559,21.2172 25.9159,18.5212 28.0459,16.3852 C30.1669,14.2562 32.8619,13.1862 36.1139,13.1862 C39.0749,13.1862 41.4479,14.0122 43.2389,15.6612 C45.0219,17.3122 45.9179,19.5022 45.9179,22.2302 C45.9179,22.5982 45.8949,23.2112 45.8479,24.0532 C45.8309,24.1942 45.8239,24.2872 45.8239,24.3502 L45.2979,25.2072 L30.3559,25.7342 C30.4969,27.5402 31.1249,28.9542 32.2579,29.9682 C33.3799,30.9822 34.9039,31.4842 36.8279,31.4842 C37.9749,31.4842 39.1939,31.2802 40.4739,30.8782 C41.7539,30.4692 43.2859,29.7962 45.0709,28.8442 L45.0709,28.8442 Z M64.9769,30.1102 L64.9769,18.5532 C64.1919,18.1442 63.4829,17.8312 62.8469,17.6342 C62.2119,17.4382 61.6299,17.3352 61.1109,17.3352 C59.1709,17.3352 57.6159,18.0432 56.4209,19.4482 C55.2359,20.8622 54.6389,22.7332 54.6389,25.0662 C54.6389,27.1092 55.1569,28.7022 56.2009,29.8512 C57.2459,31.0052 58.6919,31.5782 60.5289,31.5782 C61.1749,31.5782 61.8669,31.4522 62.6039,31.2082 C63.3439,30.9662 64.1359,30.5972 64.9769,30.1102 L64.9769,30.1102 Z M66.1479,35.8592 L65.7779,34.2492 C64.6159,34.7682 63.5299,35.1592 62.5329,35.4182 C61.5359,35.6782 60.6009,35.8122 59.7289,35.8122 C56.5469,35.8122 53.9859,34.8072 52.0299,32.7872 C50.0739,30.7692 49.0919,28.1372 49.0919,24.8842 C49.0919,21.6322 50.1519,18.8922 52.2819,16.6672 C54.4019,14.4452 56.9709,13.3282 59.9799,13.3282 C60.8279,13.3282 61.7009,13.4392 62.6039,13.6512 C63.5079,13.8632 64.4659,14.1922 65.4799,14.6402 L70.4279,14.1302 L70.4279,28.6082 C70.4279,29.7162 70.4829,30.7842 70.6009,31.8302 C70.7189,32.8752 70.8849,33.8872 71.0959,34.8702 L66.1479,35.8592 Z M77.5849,26.4252 L77.5849,18.7102 L74.2949,18.7102 L74.2949,14.1302 L77.5849,14.1302 L77.5849,7.9162 L83.1569,6.9272 L83.1569,14.1302 L88.9059,14.1302 L88.9059,18.7102 L83.1569,18.7102 L83.1569,26.4632 C83.1569,29.0332 83.4159,30.8312 83.9249,31.8702 C84.4439,32.8982 85.3709,33.9032 86.7209,34.8702 L80.5529,35.4912 C79.4629,34.8302 78.7019,33.9902 78.2549,32.9682 C77.8039,31.9472 77.5849,30.1322 77.5849,27.5252 L77.5849,26.4252 Z M92.2059,29.1202 C93.6269,29.8982 94.9379,30.4872 96.1409,30.8862 C97.3349,31.2882 98.4279,31.4842 99.4089,31.4842 C100.2959,31.4842 100.9879,31.3032 101.4909,30.9412 C101.9859,30.5822 102.2379,30.0772 102.2379,29.4332 C102.2379,28.9632 102.0409,28.5452 101.6479,28.1832 C101.2549,27.8232 100.4459,27.3832 99.2209,26.8652 L97.2399,26.0092 C95.4029,25.2222 94.0359,24.3202 93.1479,23.2832 C92.2609,22.2452 91.8119,21.0272 91.8119,19.6302 C91.8119,17.6812 92.5279,16.1182 93.9489,14.9232 C95.3789,13.7372 97.2559,13.1412 99.5899,13.1412 C100.7679,13.1412 101.9859,13.2982 103.2269,13.6202 C104.4679,13.9422 105.6479,14.4142 106.7709,15.0252 L106.2429,19.8822 C104.7039,19.0092 103.4079,18.3642 102.3549,17.9482 C101.2939,17.5322 100.4229,17.3272 99.7309,17.3272 C99.0079,17.3272 98.4279,17.5002 97.9869,17.8452 C97.5549,18.1912 97.3349,18.6322 97.3349,19.1662 C97.3349,19.6132 97.4999,20.0142 97.8219,20.3682 C98.1439,20.7202 98.6549,21.0602 99.3609,21.3812 L102.5589,22.8982 C104.5549,23.8012 105.9129,24.7122 106.6279,25.6232 C107.3509,26.5432 107.7139,27.7042 107.7139,29.1132 C107.7139,31.1702 106.9979,32.8122 105.5609,34.0292 C104.1299,35.2472 102.2209,35.8592 99.8399,35.8592 C98.4899,35.8592 97.1629,35.7192 95.8669,35.4432 C94.5609,35.1682 93.2739,34.7522 92.0169,34.2022 L92.2059,29.1202 Z" id="Fill-1" fill="#FFFFFF" mask="url(#mask-2)"></path>
                </g>
                <path d="M119.6239,48.727 L122.2719,48.727 C124.8089,48.727 126.7339,48.272 128.0619,47.369 C129.3889,46.465 130.0569,45.137 130.0569,43.385 C130.0569,41.625 129.3889,40.33 128.0549,39.498 C126.7189,38.672 124.6129,38.256 121.7459,38.256 L119.6239,38.256 L119.6239,48.727 Z M113.8269,66.679 L113.8269,33.307 L121.5579,33.307 C124.1959,33.307 126.2959,33.495 127.8579,33.872 C129.4129,34.25 130.7879,34.855 131.9919,35.702 C133.2149,36.591 134.1729,37.69 134.8649,39.003 C135.5559,40.314 135.9019,41.697 135.9019,43.159 C135.9019,46.443 134.6849,49.018 132.2569,50.881 C129.8209,52.742 126.4519,53.676 122.1379,53.676 L119.6239,53.676 L119.6239,66.679 L113.8269,66.679 Z M145.7059,66.679 L140.1359,66.679 L140.1359,33.833 L145.7059,32.843 L145.7059,66.679 Z M151.5909,45.938 L157.0409,45.938 L157.0409,58.901 C157.0409,60.158 157.3649,61.116 158.0079,61.777 C158.6539,62.436 159.5869,62.767 160.8219,62.767 C162.6279,62.767 164.0189,62.335 164.9849,61.478 C165.9509,60.621 166.4369,59.38 166.4369,57.771 L166.4369,45.938 L171.9139,45.938 L171.9139,66.679 L166.9659,67.668 L166.7609,63.48 C165.6209,64.833 164.3959,65.838 163.0769,66.497 C161.7569,67.158 160.3179,67.487 158.7469,67.487 C156.4139,67.487 154.6389,66.859 153.4199,65.602 C152.2029,64.338 151.5909,62.499 151.5909,60.072 L151.5909,45.938 Z M177.4689,60.928 C178.8889,61.707 180.2019,62.295 181.4049,62.695 C182.5979,63.096 183.6899,63.293 184.6729,63.293 C185.5599,63.293 186.2519,63.111 186.7529,62.749 C187.2479,62.39 187.4999,61.887 187.4999,61.242 C187.4999,60.77 187.3029,60.354 186.9109,59.992 C186.5189,59.632 185.7099,59.192 184.4829,58.673 L182.5039,57.818 C180.6649,57.031 179.2999,56.127 178.4109,55.09 C177.5219,54.054 177.0749,52.835 177.0749,51.438 C177.0749,49.49 177.7899,47.925 179.2129,46.731 C180.6429,45.546 182.5189,44.95 184.8529,44.95 C186.0299,44.95 187.2479,45.108 188.4899,45.428 C189.7309,45.751 190.9109,46.222 192.0329,46.834 L191.5059,51.688 C189.9659,50.818 188.6709,50.174 187.6169,49.757 C186.5559,49.341 185.6839,49.135 184.9939,49.135 C184.2719,49.135 183.6899,49.308 183.2499,49.654 C182.8169,50 182.5979,50.441 182.5979,50.974 C182.5979,51.423 182.7619,51.823 183.0849,52.176 C183.4079,52.529 183.9169,52.868 184.6249,53.189 L187.8209,54.707 C189.8179,55.608 191.1759,56.521 191.8919,57.432 C192.6129,58.351 192.9749,59.513 192.9749,60.921 C192.9749,62.98 192.2609,64.62 190.8229,65.838 C189.3929,67.055 187.4839,67.668 185.1049,67.668 C183.7519,67.668 182.4239,67.527 181.1289,67.252 C179.8249,66.978 178.5359,66.56 177.2789,66.01 L177.4689,60.928 Z" id="Fill-4" fill="#00ADEE"></path>
                <polygon id="Fill-6" fill="#00ADEE" points="197.9028 30.6093 197.7428 53.4623 207.7738 36.5213 207.8448 34.1643"></polygon>
                <polygon id="Fill-8" fill="#FCB823" points="176.059 20.8662 192.485 26.3352 196.043 27.5512 196.107 21.6802 196.174 15.6902 189.119 14.6302"></polygon>
                <g id="Group-12" transform="translate(199.000000, 17.808800)" fill="#EE3829">
                    <polygon id="Fill-10" points="10.5658 0.2781 27.2808 2.7931 23.2738 18.5601 0.3818 10.8901"></polygon>
                </g>
                <polygon id="Fill-13" fill="#00ADEE" points="198.224 2.6919 208.696 -0.0001 208.487 9.5509 208.279 17.0519 197.919 26.9649 198.065 15.2109"></polygon>
            </g>
        </g>
    </g>
</svg>