<?xml version="1.0" encoding="UTF-8"?>
<svg width="251px" height="76px" viewBox="0 0 251 76" version="1.1" xmlns="http://www.w3.org/2000/svg" xmlns:xlink="http://www.w3.org/1999/xlink">
    <title>47F1AEB0-50D8-4A77-B205-CE6B915208CA</title>
    <defs>
        <polygon id="path-1" points="0 0.403897059 118.627643 0.403897059 118.627643 39.7058824 0 39.7058824"></polygon>
    </defs>
    <g id="V2" stroke="none" stroke-width="1" fill="none" fill-rule="evenodd">
        <g id="Home" transform="translate(-40.000000, -23.000000)">
            <g id="logo" transform="translate(40.000000, 23.000000)">
                <g id="Group-3" transform="translate(0.000000, 35.083235)">
                    <mask id="mask-2" fill="white">
                        <use xlink:href="#path-1"></use>
                    </mask>
                    <g id="Clip-2"></g>
                    <path d="M-0.000110132159,30.2880882 C1.99878855,31.5807353 3.82477974,32.5248529 5.47676211,33.1303676 C7.12874449,33.7469118 8.70363436,34.0491176 10.1915198,34.0491176 C12.1210352,34.0491176 13.678304,33.5726471 14.8820485,32.6108824 C16.0846916,31.6568382 16.6805066,30.4193382 16.6805066,28.8928676 C16.6805066,27.6288971 16.2829295,26.48625 15.4778634,25.4803676 C14.6738987,24.4744853 13.2719163,23.37375 11.2818282,22.1869853 L8.5219163,20.5149265 C5.71024229,18.8516912 3.72015419,17.2226471 2.55165198,15.6288971 C1.37654185,14.0263235 0.787334802,12.1976471 0.787334802,10.1241176 C0.787334802,7.24985294 1.81707048,4.91051471 3.87544053,3.10830882 C5.94482379,1.30610294 8.62654185,0.403897059 11.9404185,0.403897059 C13.5395374,0.403897059 15.1067181,0.585882353 16.6111233,0.94875 C18.1254405,1.31382353 19.6485683,1.87632353 21.1893172,2.64066176 L20.9888767,8.50610294 C19.1639868,7.51014706 17.5538546,6.77338235 16.1617841,6.31345588 C14.7686123,5.84691176 13.5230176,5.61198529 12.425,5.61198529 C10.7267621,5.61198529 9.40517621,5.98367647 8.42720264,6.73808824 C7.45803965,7.49139706 6.97345815,8.52264706 6.97345815,9.82191176 C6.97345815,10.8443382 7.32918502,11.7641912 8.0373348,12.5969118 C8.7465859,13.4186029 10.0626652,14.4068382 11.9921806,15.5406618 L14.6562775,17.0825735 C17.7278634,18.9134559 19.9172907,20.7322059 21.2135463,22.5333088 C22.5219163,24.3366176 23.1694934,26.4068382 23.1694934,28.7373529 C23.1694934,32.0219118 22.0186123,34.6733824 19.709141,36.6829412 C17.4073789,38.7013235 14.335793,39.7061029 10.4932819,39.7061029 C8.73777533,39.7061029 7.02632159,39.5252206 5.36332599,39.16125 C3.70253304,38.7972794 2.10231278,38.2502206 0.589096916,37.5244853 L-0.000110132159,30.2880882 Z M33.5351322,25.0027941 L44.8688326,24.4744853 L44.8688326,24.1623529 C44.8688326,22.7406618 44.3930617,21.5902941 43.4503304,20.7057353 C42.4987885,19.8134559 41.2785242,19.3722794 39.7730176,19.3722794 C38.1111233,19.3722794 36.7454846,19.8652941 35.6452643,20.8524265 C34.5560573,21.8417647 33.8545154,23.2281618 33.5351322,25.0027941 L33.5351322,25.0027941 Z M49.6375551,31.8134559 L49.0307269,37.3160294 C47.2564978,38.0605147 45.6122247,38.6086765 44.1078194,38.9627206 C42.6023128,39.3178676 41.1573789,39.49875 39.7730176,39.49875 C36.1915198,39.49875 33.2234581,38.3208088 30.8875551,35.9715441 C28.5417401,33.6167647 27.3743392,30.6355147 27.3743392,27.0123529 C27.3743392,23.4013235 28.5417401,20.4277941 30.8875551,18.0719118 C33.2234581,15.72375 36.1915198,14.5436029 39.7730176,14.5436029 C43.0340308,14.5436029 45.647467,15.4546324 47.6199339,17.2733824 C49.5835903,19.0943382 50.5703744,21.5097794 50.5703744,24.5186029 C50.5703744,24.9244853 50.5450441,25.6005882 50.4932819,26.5292647 C50.4745595,26.6847794 50.4668502,26.7873529 50.4668502,26.8568382 L49.8875551,27.8020588 L33.4316079,28.3833088 C33.5868943,30.3752206 34.2785242,31.9347794 35.5263216,33.0531618 C36.7620044,34.1715441 38.4404185,34.7252206 40.5593612,34.7252206 C41.8225771,34.7252206 43.1650881,34.5002206 44.5747797,34.0568382 C45.9844714,33.6057353 47.671696,32.8634559 49.6375551,31.8134559 L49.6375551,31.8134559 Z M71.5604626,33.2097794 L71.5604626,20.4630882 C70.6959251,20.0119853 69.9150881,19.6667647 69.2146476,19.4494853 C68.5153084,19.2333088 67.8743392,19.1197059 67.3027533,19.1197059 C65.1661894,19.1197059 63.4536344,19.9005882 62.1375551,21.4502206 C60.832489,23.0097794 60.175,25.0733824 60.175,27.6465441 C60.175,29.8998529 60.7454846,31.6568382 61.8952643,32.9241176 C63.0461454,34.1969118 64.6386564,34.8288971 66.6617841,34.8288971 C67.3732379,34.8288971 68.1353524,34.6899265 68.9470264,34.4208088 C69.7620044,34.1538971 70.6342511,33.7469118 71.5604626,33.2097794 L71.5604626,33.2097794 Z M72.8501101,39.5505882 L72.4426211,37.7748529 C71.1628855,38.3472794 69.9668502,38.7785294 68.8688326,39.0641912 C67.770815,39.3509559 66.7410793,39.49875 65.7807269,39.49875 C62.2763216,39.49875 59.455837,38.3902941 57.301652,36.1623529 C55.147467,33.9366176 54.0659692,31.0336765 54.0659692,27.4458088 C54.0659692,23.8590441 55.23337,20.8369853 57.579185,18.3829412 C59.9139868,15.9322059 62.7432819,14.7002206 66.0571586,14.7002206 C66.9910793,14.7002206 67.952533,14.8226471 68.9470264,15.0564706 C69.9426211,15.2902941 70.9976872,15.6531618 72.1144273,16.1472794 L77.5637665,15.5847794 L77.5637665,31.5531618 C77.5637665,32.7752206 77.6243392,33.9531618 77.7542952,35.1068382 C77.8842511,36.2594118 78.0670705,37.3755882 78.2994493,38.4597794 L72.8501101,39.5505882 Z M85.4459251,29.1454412 L85.4459251,20.63625 L81.8225771,20.63625 L81.8225771,15.5847794 L85.4459251,15.5847794 L85.4459251,8.73110294 L91.582489,7.64029412 L91.582489,15.5847794 L97.9139868,15.5847794 L97.9139868,20.63625 L91.582489,20.63625 L91.582489,29.1873529 C91.582489,32.0219118 91.8677313,34.005 92.428304,35.1509559 C92.9998899,36.2847794 94.020815,37.3932353 95.5075991,38.4597794 L88.7146476,39.1447059 C87.514207,38.4156618 86.6761013,37.4891912 86.1838106,36.3619853 C85.6871145,35.2358824 85.4459251,33.2340441 85.4459251,30.3586765 L85.4459251,29.1454412 Z M101.548348,32.1178676 C103.113326,32.9759559 104.557159,33.6255882 105.882048,34.0656618 C107.197026,34.5090441 108.400771,34.7252206 109.481167,34.7252206 C110.45804,34.7252206 111.220154,34.5255882 111.774119,34.1263235 C112.319273,33.7303676 112.596806,33.1733824 112.596806,32.4630882 C112.596806,31.9447059 112.379846,31.4836765 111.947026,31.0844118 C111.514207,30.6873529 110.623238,30.2020588 109.274119,29.6307353 L107.092401,28.6866176 C105.069273,27.8186029 103.563767,26.82375 102.585793,25.68 C101.608921,24.5351471 101.114427,23.1917647 101.114427,21.6509559 C101.114427,19.5013235 101.902974,17.7774265 103.467952,16.4594118 C105.042841,15.1513235 107.110022,14.4939706 109.680507,14.4939706 C110.977863,14.4939706 112.319273,14.6671324 113.686013,15.0222794 C115.052753,15.3774265 116.352313,15.8980147 117.589097,16.5719118 L117.007599,21.9288971 C115.312665,20.9660294 113.885352,20.2546324 112.725661,19.7958088 C111.557159,19.3369853 110.597907,19.1108824 109.835793,19.1108824 C109.039537,19.1108824 108.400771,19.3016912 107.915088,19.6822059 C107.439317,20.0638235 107.197026,20.5502206 107.197026,21.1391912 C107.197026,21.6322059 107.378744,22.0744853 107.73337,22.4649265 C108.087996,22.8531618 108.650771,23.2281618 109.428304,23.5822059 L112.95033,25.2553676 C115.148568,26.2513235 116.644163,27.2561029 117.431608,28.2608824 C118.227863,29.2755882 118.627643,30.5561029 118.627643,32.1101471 C118.627643,34.3788971 117.839097,36.1899265 116.256498,37.5322059 C114.680507,38.8755882 112.578084,39.5505882 109.955837,39.5505882 C108.469053,39.5505882 107.007599,39.3961765 105.580286,39.0917647 C104.14196,38.7884559 102.724559,38.3296324 101.340198,37.7230147 L101.548348,32.1178676 Z" id="Fill-1" fill="#2C383D" mask="url(#mask-2)"></path>
                </g>
                <path d="M131.744383,53.7430147 L134.660683,53.7430147 C137.454736,53.7430147 139.57478,53.2411765 141.037335,52.2452206 C142.498789,51.2481618 143.234471,49.7834559 143.234471,47.8511029 C143.234471,45.9099265 142.498789,44.4816176 141.029626,43.5639706 C139.55826,42.6529412 137.238877,42.1941176 134.081388,42.1941176 L131.744383,42.1941176 L131.744383,53.7430147 Z M125.360022,73.5430147 L125.360022,36.7356618 L133.874339,36.7356618 C136.779626,36.7356618 139.092401,36.9430147 140.812665,37.3588235 C142.52522,37.7757353 144.039537,38.4430147 145.365529,39.3772059 C146.712445,40.3577206 147.767511,41.5698529 148.529626,43.0180147 C149.290639,44.4639706 149.671696,45.9893382 149.671696,47.6018382 C149.671696,51.2238971 148.331388,54.0639706 145.657379,56.11875 C142.974559,58.1713235 139.264207,59.2014706 134.513106,59.2014706 L131.744383,59.2014706 L131.744383,73.5430147 L125.360022,73.5430147 Z M160.469053,73.5430147 L154.334692,73.5430147 L154.334692,37.3158088 L160.469053,36.2238971 L160.469053,73.5430147 Z M166.95033,50.6669118 L172.952533,50.6669118 L172.952533,64.9643382 C172.952533,66.3507353 173.309361,67.4073529 174.017511,68.1363971 C174.728965,68.8632353 175.756498,69.2283088 177.11663,69.2283088 C179.105617,69.2283088 180.637555,68.7518382 181.701432,67.8066176 C182.765308,66.8613971 183.300551,65.4926471 183.300551,63.7180147 L183.300551,50.6669118 L189.332489,50.6669118 L189.332489,73.5430147 L183.88315,74.6338235 L183.657379,70.0147059 C182.401872,71.5069853 181.052753,72.6154412 179.60011,73.3422794 C178.146366,74.0713235 176.561564,74.4341912 174.831388,74.4341912 C172.262004,74.4341912 170.307159,73.7415441 168.964648,72.3551471 C167.624339,70.9610294 166.95033,68.9327206 166.95033,66.2558824 L166.95033,50.6669118 Z M195.45033,67.2 C197.014207,68.0591912 198.460242,68.7077206 199.785132,69.1488971 C201.099009,69.5911765 202.301652,69.8084559 203.384251,69.8084559 C204.361123,69.8084559 205.123238,69.6077206 205.675,69.2084559 C206.220154,68.8125 206.497687,68.2577206 206.497687,67.5463235 C206.497687,67.0257353 206.280727,66.5669118 205.849009,66.1676471 C205.417291,65.7705882 204.526322,65.2852941 203.175,64.7128676 L200.995485,63.7698529 C198.970154,62.9018382 197.46685,61.9047794 196.487775,60.7610294 C195.5087,59.6183824 195.01641,58.2738971 195.01641,56.7330882 C195.01641,54.5845588 195.803855,52.8584559 197.371035,51.5415441 C198.945925,50.2345588 201.012004,49.5772059 203.582489,49.5772059 C204.878744,49.5772059 206.220154,49.7514706 207.587996,50.1044118 C208.954736,50.4606618 210.254295,50.9801471 211.489978,51.6551471 L210.909581,57.0088235 C209.213546,56.0492647 207.787335,55.3389706 206.626542,54.8790441 C205.45804,54.4202206 204.497687,54.1930147 203.737775,54.1930147 C202.942621,54.1930147 202.301652,54.3838235 201.81707,54.7654412 C201.340198,55.1470588 201.099009,55.6334559 201.099009,56.2213235 C201.099009,56.7165441 201.279626,57.1577206 201.635352,57.5470588 C201.991079,57.9363971 202.551652,58.3102941 203.331388,58.6643382 L206.851211,60.3386029 C209.050551,61.3323529 210.546145,62.3393382 211.334692,63.3441176 C212.128744,64.3577206 212.527423,65.6393382 212.527423,67.1922794 C212.527423,69.4632353 211.741079,71.2720588 210.157379,72.6154412 C208.582489,73.9577206 206.480066,74.6338235 203.860022,74.6338235 C202.369934,74.6338235 200.907379,74.4783088 199.481167,74.175 C198.045044,73.8727941 196.625441,73.4117647 195.241079,72.8051471 L195.45033,67.2 Z" id="Fill-4" fill="#00ADEE"></path>
                <polygon id="Fill-6" fill="#00ADEE" points="217.954626 33.7602574 217.778414 58.9657721 228.825771 40.2808456 228.903965 37.6812132"></polygon>
                <polygon id="Fill-8" fill="#FCB823" points="193.897577 23.0141912 211.987885 29.0461765 215.906388 30.3873529 215.976872 23.9119853 216.050661 17.3053676 208.280837 16.13625"></polygon>
                <g id="Group-12" transform="translate(219.162996, 19.642059)" fill="#EE3829">
                    <polygon id="Fill-10" points="11.6363436 0.306727941 30.0449339 3.080625 25.6319383 20.4706985 0.420484581 12.0111397"></polygon>
                </g>
                <polygon id="Fill-13" fill="#00ADEE" points="218.30837 2.96900735 229.84141 -0.000110294118 229.611233 10.5340809 229.382159 18.8072426 217.972467 29.7406985 218.13326 16.7767279"></polygon>
            </g>
        </g>
    </g>
</svg>